<mxfile host="app.diagrams.net" modified="2024-03-14T02:15:06.015Z" agent="Mozilla/5.0 (Macintosh; Intel Mac OS X 10_15_7) AppleWebKit/537.36 (KHTML, like Gecko) Chrome/122.0.0.0 Safari/537.36" etag="0zD21fxmH6AqFh7Ras17" version="24.0.6" type="device">
  <diagram name="PÃ¡gina-1" id="PPq3TKaDJ3LNgwmij9UF">
    <mxGraphModel dx="984" dy="540" grid="1" gridSize="10" guides="1" tooltips="1" connect="1" arrows="1" fold="1" page="1" pageScale="1" pageWidth="827" pageHeight="1169" math="0" shadow="0">
      <root>
        <mxCell id="0" />
        <mxCell id="1" parent="0" />
        <mxCell id="tMx6VQujs1-kL4qvIePB-1" value="Login" style="ellipse;whiteSpace=wrap;html=1;" vertex="1" parent="1">
          <mxGeometry x="230" y="100" width="120" height="80" as="geometry" />
        </mxCell>
        <mxCell id="tMx6VQujs1-kL4qvIePB-2" value="Buscar GIFs" style="ellipse;whiteSpace=wrap;html=1;" vertex="1" parent="1">
          <mxGeometry x="230" y="200" width="120" height="80" as="geometry" />
        </mxCell>
        <mxCell id="tMx6VQujs1-kL4qvIePB-4" value="GIF by Id" style="ellipse;whiteSpace=wrap;html=1;" vertex="1" parent="1">
          <mxGeometry x="230" y="300" width="120" height="80" as="geometry" />
        </mxCell>
        <mxCell id="tMx6VQujs1-kL4qvIePB-5" value="Guardar GIF favorito" style="ellipse;whiteSpace=wrap;html=1;" vertex="1" parent="1">
          <mxGeometry x="230" y="400" width="120" height="80" as="geometry" />
        </mxCell>
        <mxCell id="tMx6VQujs1-kL4qvIePB-7" style="edgeStyle=orthogonalEdgeStyle;rounded=0;orthogonalLoop=1;jettySize=auto;html=1;entryX=0;entryY=0.5;entryDx=0;entryDy=0;" edge="1" parent="1" source="tMx6VQujs1-kL4qvIePB-6" target="tMx6VQujs1-kL4qvIePB-1">
          <mxGeometry relative="1" as="geometry" />
        </mxCell>
        <mxCell id="tMx6VQujs1-kL4qvIePB-8" style="edgeStyle=orthogonalEdgeStyle;rounded=0;orthogonalLoop=1;jettySize=auto;html=1;entryX=0;entryY=0.5;entryDx=0;entryDy=0;" edge="1" parent="1" source="tMx6VQujs1-kL4qvIePB-6" target="tMx6VQujs1-kL4qvIePB-2">
          <mxGeometry relative="1" as="geometry" />
        </mxCell>
        <mxCell id="tMx6VQujs1-kL4qvIePB-9" style="edgeStyle=orthogonalEdgeStyle;rounded=0;orthogonalLoop=1;jettySize=auto;html=1;entryX=0;entryY=0.5;entryDx=0;entryDy=0;" edge="1" parent="1" source="tMx6VQujs1-kL4qvIePB-6" target="tMx6VQujs1-kL4qvIePB-4">
          <mxGeometry relative="1" as="geometry" />
        </mxCell>
        <mxCell id="tMx6VQujs1-kL4qvIePB-15" value="Capa GIPHY" style="rounded=0;whiteSpace=wrap;html=1;fillColor=#ffe6cc;strokeColor=#d79b00;opacity=70;align=center;verticalAlign=top;" vertex="1" parent="1">
          <mxGeometry x="414" y="160" width="196" height="240" as="geometry" />
        </mxCell>
        <mxCell id="tMx6VQujs1-kL4qvIePB-10" style="edgeStyle=orthogonalEdgeStyle;rounded=0;orthogonalLoop=1;jettySize=auto;html=1;entryX=0;entryY=0.5;entryDx=0;entryDy=0;" edge="1" parent="1" source="tMx6VQujs1-kL4qvIePB-6" target="tMx6VQujs1-kL4qvIePB-5">
          <mxGeometry relative="1" as="geometry" />
        </mxCell>
        <mxCell id="tMx6VQujs1-kL4qvIePB-6" value="Usuario" style="shape=umlActor;verticalLabelPosition=bottom;verticalAlign=top;html=1;outlineConnect=0;" vertex="1" parent="1">
          <mxGeometry x="100" y="240" width="30" height="60" as="geometry" />
        </mxCell>
        <mxCell id="tMx6VQujs1-kL4qvIePB-11" value="GIF by Id" style="ellipse;whiteSpace=wrap;html=1;" vertex="1" parent="1">
          <mxGeometry x="440" y="300" width="120" height="80" as="geometry" />
        </mxCell>
        <mxCell id="tMx6VQujs1-kL4qvIePB-12" value="Buscar GIF" style="ellipse;whiteSpace=wrap;html=1;" vertex="1" parent="1">
          <mxGeometry x="440" y="200" width="120" height="80" as="geometry" />
        </mxCell>
        <mxCell id="tMx6VQujs1-kL4qvIePB-13" style="edgeStyle=orthogonalEdgeStyle;rounded=0;orthogonalLoop=1;jettySize=auto;html=1;entryX=0;entryY=0.5;entryDx=0;entryDy=0;dashed=1;" edge="1" parent="1" source="tMx6VQujs1-kL4qvIePB-2" target="tMx6VQujs1-kL4qvIePB-12">
          <mxGeometry relative="1" as="geometry" />
        </mxCell>
        <mxCell id="tMx6VQujs1-kL4qvIePB-14" style="edgeStyle=orthogonalEdgeStyle;rounded=0;orthogonalLoop=1;jettySize=auto;html=1;entryX=0;entryY=0.5;entryDx=0;entryDy=0;dashed=1;" edge="1" parent="1" source="tMx6VQujs1-kL4qvIePB-4" target="tMx6VQujs1-kL4qvIePB-11">
          <mxGeometry relative="1" as="geometry">
            <Array as="points">
              <mxPoint x="380" y="340" />
              <mxPoint x="380" y="340" />
            </Array>
          </mxGeometry>
        </mxCell>
      </root>
    </mxGraphModel>
  </diagram>
</mxfile>
